<svg width="126" height="126" viewBox="0 0 126 126" fill="none" xmlns="http://www.w3.org/2000/svg">
<path d="M48.7439 59.0206V59.0201C48.7429 57.99 48.2888 57.02 47.515 56.3602C48.4763 53.8772 50.1875 50.8435 52.185 47.5517C52.5694 46.9181 52.9633 46.2745 53.3625 45.6222C55.9184 41.4456 58.693 36.9116 60.6047 32.3835C62.8123 27.1545 63.9608 21.7248 61.9338 16.8489C59.9585 12.0971 55.0955 8.30116 46.4155 5.79652C46.4672 5.54456 46.4999 5.27971 46.4999 5.00202C46.4999 2.52898 44.4737 0.500115 41.9999 0.500115C39.5266 0.500115 37.4981 2.52866 37.4981 5.00202C37.4981 7.47576 39.5269 9.50185 41.9999 9.50185C43.084 9.50185 44.0748 9.10756 44.8498 8.46648C44.8512 8.46685 44.8526 8.46721 44.854 8.46757C53.5732 10.8441 57.6114 14.2634 59.1648 18.0003C60.7255 21.7545 59.918 26.2841 57.8378 31.2113C56.0134 35.5325 53.2836 40.0038 50.6911 44.2501C50.3322 44.8379 49.9759 45.4215 49.625 45.9997C47.5476 49.4233 45.6289 52.653 44.566 55.5905C42.9424 55.9089 41.7448 57.3356 41.7421 59.0198V59.0206C41.7421 62.1085 40.6108 64.0202 38.8292 65.4531C37.0357 66.8956 34.4243 67.7333 31.7463 67.7333C29.068 67.7333 26.4488 66.8955 24.6555 65.4531L24.3422 65.8428L24.6555 65.4531C22.8747 64.0208 21.7435 62.1101 21.7426 59.0244C21.7676 57.3137 20.556 55.853 18.9056 55.5363C17.8391 52.6133 15.9328 49.4013 13.8675 45.9977L13.4636 46.2428L13.8675 45.9977C13.5008 45.3933 13.128 44.7831 12.7524 44.1683C10.1727 39.9458 7.45985 35.5054 5.64697 31.2113C3.56707 26.2848 2.76689 21.7549 4.32775 18.0003L3.86606 17.8083L4.32775 18.0003C5.85992 14.3146 9.81266 10.9385 18.2877 8.56637C19.0387 9.14302 19.9732 9.50185 20.9985 9.50185C23.4719 9.50185 25.4984 7.47531 25.4984 5.00191C25.4984 2.52884 23.4721 0.500115 20.9985 0.500115C18.5251 0.500115 16.4966 2.52866 16.4966 5.00202C16.4966 5.32932 16.5393 5.64135 16.6087 5.93778C8.22544 8.44248 3.49016 12.1839 1.55086 16.8489C-0.476272 21.7252 0.680451 27.1551 2.88783 32.3835C4.80877 36.9336 7.59498 41.4893 10.1598 45.683C10.546 46.3145 10.9272 46.9378 11.2997 47.5517C13.2869 50.8266 14.9933 53.8451 15.9596 56.3212C15.1781 56.9925 14.7264 57.9806 14.7408 59.0242C14.7418 64.0774 16.9907 68.2659 20.271 70.9042C23.2247 73.2797 26.8849 74.4775 30.5651 74.6881C30.8622 83.7069 32.7167 95.502 38.2913 105.548C44.4475 116.641 55.2792 125.5 73.0031 125.5C87.6527 125.5 99.7624 121.082 107.379 109.845C114.847 98.8287 117.9 81.5684 115.603 56.1117C121.421 53.5614 125.5 47.7565 125.5 41.0034C125.5 31.9027 118.097 24.4997 108.996 24.4997C99.8955 24.4997 92.5007 31.903 92.5007 41.0034C92.5007 50.1041 99.8958 57.4992 108.996 57.4992C110.264 57.4992 111.491 57.3413 112.671 57.0673C114.818 81.816 111.704 98.1219 104.899 108.161C97.9423 118.424 87.0568 122.5 73.0031 122.5C64.6564 122.5 58.076 120.48 52.8688 117.182C47.6589 113.883 43.7964 109.287 40.9157 104.096C35.6919 94.6822 33.8672 83.348 33.5676 74.6481C37.0299 74.3398 40.4394 73.1417 43.2215 70.9042C46.5031 68.2649 48.7439 64.0749 48.7439 59.0206ZM20.9985 3.50199C21.8387 3.50199 22.4984 4.16174 22.4984 5.00202C22.4984 5.84229 21.8387 6.50194 20.9985 6.50194C20.1582 6.50194 19.4985 5.84229 19.4985 5.00202C19.4985 4.16174 20.1582 3.50199 20.9985 3.50199ZM41.9999 3.50199C42.8401 3.50199 43.4999 4.16174 43.4999 5.00202C43.4999 5.84229 42.8402 6.50194 41.9999 6.50194C41.159 6.50194 40.498 5.84166 40.498 5.00202C40.498 4.16238 41.1591 3.50199 41.9999 3.50199ZM108.996 27.4997C116.464 27.4997 122.5 33.5358 122.5 41.0034C122.5 46.7022 118.979 51.5533 113.992 53.5358L113.589 53.6828L113.538 53.7015L113.536 53.702L113.533 53.7032L113.533 53.7032L113.532 53.7036L113.532 53.7037L113.532 53.7037L113.53 53.7044L113.523 53.7068L113.472 53.7255L113.072 53.8713C111.786 54.2766 110.418 54.4991 108.996 54.4991C101.529 54.4991 95.5007 48.4708 95.5007 41.0033C95.5007 33.5354 101.529 27.4997 108.996 27.4997ZM108.996 33.5055C104.866 33.5055 101.499 36.8731 101.499 41.0034C101.499 45.1336 104.866 48.5013 108.996 48.5013C113.126 48.5013 116.502 45.1343 116.502 41.0034C116.502 36.8724 113.126 33.5055 108.996 33.5055ZM108.996 36.5054C111.494 36.5054 113.5 38.5071 113.5 41.0034C113.5 43.4995 111.495 45.4994 108.996 45.4994C106.499 45.4994 104.499 43.5002 104.499 41.0034C104.499 38.5063 106.499 36.5054 108.996 36.5054Z" fill="#569C1F" stroke="#569C1F"/>
</svg>
