<svg width="124" height="124" viewBox="0 0 124 124" fill="none" xmlns="http://www.w3.org/2000/svg">
<path d="M19.9985 0.000115342C17.8012 0.000115342 15.9966 1.80479 15.9966 4.00202C15.9966 4.45027 16.0889 4.87386 16.2271 5.27736C7.61184 7.76213 2.90486 11.4889 1.01255 16.0408C-0.935555 20.727 0.156299 25.9967 2.34846 31.1891C4.54062 36.3815 7.87023 41.584 10.7272 46.2923C12.8062 49.7185 14.6025 52.9028 15.5591 55.4914C14.7214 56.0583 14.2258 57.0092 14.2408 58.0206C14.2408 62.9211 16.419 66.9687 19.5844 69.5146C22.5655 71.9121 26.3031 73.0804 30.051 73.2099C30.2979 82.243 32.1115 94.183 37.7285 104.305C43.8089 115.262 54.4849 124 72.0031 124C86.5516 124 98.4728 119.618 105.965 108.565C113.371 97.6403 116.427 80.4116 114.072 54.7942C119.891 52.3981 124 46.6769 124 40.0034C124 31.1788 116.821 23.9997 107.996 23.9997C99.1719 23.9997 92.0007 31.1788 92.0007 40.0034C92.0007 48.828 99.1719 55.9992 107.996 55.9992C109.423 55.9992 110.8 55.7924 112.117 55.4405C114.368 80.5545 111.269 97.18 104.313 107.442C97.2314 117.888 86.1567 122 72.0031 122C55.1405 122 45.3024 113.833 39.4785 103.338C34.105 93.655 32.3028 81.9879 32.0529 73.1864C35.5937 72.9554 39.0892 71.7817 41.9081 69.5146C45.0735 66.9687 47.2439 62.9211 47.2439 58.0206C47.2429 57.0219 46.745 56.0891 45.9158 55.5323C46.8664 52.9367 48.6679 49.736 50.7575 46.2923C53.6145 41.584 56.9519 36.3815 59.144 31.1891C61.3362 25.9967 62.4202 20.727 60.4721 16.0408C58.5464 11.4082 53.719 7.62828 44.8104 5.1446C44.9212 4.7795 44.9999 4.40156 44.9999 4.00202C44.9999 1.80479 43.1972 0.000115342 40.9999 0.000115342C38.8027 0.000115342 36.9981 1.80479 36.9981 4.00202C36.9981 6.19929 38.8027 8.00185 40.9999 8.00185C42.0624 8.00185 43.027 7.57459 43.746 6.89053C43.8204 6.93173 43.8999 6.96314 43.9823 6.98431C52.7679 9.37837 56.9865 12.8632 58.6265 16.8083C60.2665 20.7534 59.3933 25.4437 57.2984 30.4058C55.2035 35.3678 51.9272 40.5216 49.0525 45.2591C46.9008 48.8052 44.9558 52.0867 43.9374 55.0402C42.4082 55.1966 41.2445 56.4834 41.2421 58.0206C41.2421 61.2633 40.0395 63.3171 38.1426 64.8427C36.2457 66.3684 33.518 67.2333 30.7463 67.2333C27.9745 67.2333 25.2391 66.3684 23.3422 64.8427C21.4452 63.3171 20.2426 61.2633 20.2426 58.0206C20.2672 56.4591 19.0898 55.1399 17.5356 54.9875C16.5124 52.0474 14.5793 48.7826 12.4401 45.2571C9.56536 40.5196 6.28124 35.3678 4.18634 30.4058C2.09144 25.4437 1.22605 20.7534 2.86606 16.8083C4.49915 12.8799 8.69259 9.40868 17.4028 7.01556C18.1048 7.62161 19.0059 8.00185 19.9985 8.00185C22.1957 8.00185 23.9984 6.19917 23.9984 4.00191C23.9984 1.80468 22.1957 0.000115342 19.9985 0.000115342ZM19.9985 2.00199C21.1148 2.00199 21.9984 2.88563 21.9984 4.00202C21.9984 5.11846 21.1148 6.00194 19.9985 6.00194C18.8821 6.00194 17.9985 5.11846 17.9985 4.00202C17.9985 2.88563 18.8821 2.00199 19.9985 2.00199ZM40.9999 2.00199C42.1163 2.00199 42.9999 2.88563 42.9999 4.00202C42.9999 5.11846 42.1163 6.00194 40.9999 6.00194C39.8835 6.00194 38.998 5.11846 38.998 4.00202C38.998 2.88563 39.8835 2.00199 40.9999 2.00199ZM107.996 25.9997C115.74 25.9997 122 32.2597 122 40.0034C122 45.917 118.344 50.9494 113.17 53.0031C112.233 53.3448 113.17 53.0031 112.233 53.3448C110.896 53.767 109.474 53.9991 107.996 53.9991C100.253 53.9991 94.0007 47.747 94.0007 40.0033C94.0007 32.2596 100.253 25.9997 107.996 25.9997ZM107.996 33.0055C104.142 33.0055 100.999 36.1493 100.999 40.0034C100.999 43.8575 104.142 47.0013 107.996 47.0013C111.851 47.0013 115.002 43.8575 115.002 40.0034C115.002 36.1493 111.851 33.0055 107.996 33.0055ZM107.996 35.0054C110.77 35.0054 113 37.2302 113 40.0034C113 42.7766 110.77 44.9994 107.996 44.9994C105.223 44.9994 102.999 42.7766 102.999 40.0034C102.999 37.2302 105.223 35.0054 107.996 35.0054Z" fill="#569C1F"/>
</svg>
