<svg width="55" height="62" viewBox="0 0 55 62" fill="none" xmlns="http://www.w3.org/2000/svg">
<path fill-rule="evenodd" clip-rule="evenodd" d="M43.6479 48.7065C43.2887 48.7065 42.9295 48.5612 42.6421 48.307L40.1633 45.7645C38.7982 44.4206 40.8459 42.3503 42.1751 43.7305L43.6479 45.2197L47.9589 40.8612C49.288 39.5173 51.3357 41.5876 49.9706 42.9315L44.6897 48.307C44.4024 48.5612 44.0431 48.7065 43.6479 48.7065ZM39.4448 62H7.04115C3.16133 62 0 58.7674 0 54.8448V7.15524C0 3.19625 3.16133 0 7.04115 0H39.4448C43.3246 0 46.486 3.19625 46.486 7.15524V33.5606C48.0307 34.5413 50.6891 35.7399 52.8445 34.4687C53.8145 33.9238 55 34.6139 55 35.7399V44.8565C55 47.6895 52.9164 53.7551 46.4141 55.9707C45.8752 59.3849 42.9295 62 39.4448 62ZM43.612 33.5243V7.15524C43.612 4.79438 41.744 2.90568 39.4448 2.90568H7.04115C4.742 2.90568 2.87394 4.79438 2.87394 7.15524V54.8448C2.87394 57.1693 4.742 59.0943 7.04115 59.0943H39.4448C41.3847 59.0943 43.0372 57.7141 43.5042 55.8981C37.1457 53.6098 35.1339 47.6532 35.1339 44.8565V35.7399C35.1339 34.6139 36.3194 33.9238 37.2894 34.4687C39.4448 35.7399 42.0673 34.5413 43.612 33.5243ZM34.1639 13.5114H12.322C10.418 13.5114 10.418 10.6057 12.322 10.6057H34.1639C36.0679 10.6057 36.0679 13.5114 34.1639 13.5114ZM38.3312 22.9912H8.1548C6.25082 22.9912 6.25082 20.0855 8.1548 20.0855H38.3312C40.2351 20.0855 40.2351 22.9912 38.3312 22.9912ZM38.3312 32.4347H8.1548C6.25082 32.4347 6.25082 29.529 8.1548 29.529H38.3312C40.2351 29.529 40.2351 32.4347 38.3312 32.4347ZM24.5003 41.9145H8.1548C6.25082 41.9145 6.25082 39.0088 8.1548 39.0088H24.5003C26.4043 39.0088 26.4043 41.9145 24.5003 41.9145ZM26.4402 51.3579H8.1548C6.25082 51.3579 6.25082 48.4523 8.1548 48.4523H26.4402C28.3083 48.4523 28.3083 51.3579 26.4402 51.3579ZM38.0078 44.8202C38.0438 45.2923 38.5108 51.3943 45.049 53.3556C51.6231 51.3943 52.0901 45.3286 52.1261 44.8202V37.8102C49.3958 38.3187 46.7015 37.1201 45.049 36.0668C43.4324 37.1201 40.7381 38.3187 38.0078 37.8102V44.8202Z" fill="#569C1F"/>
</svg>
