<svg width="48" height="59" viewBox="0 0 48 59" fill="none" xmlns="http://www.w3.org/2000/svg">
<path d="M23.57 53.91C24.6955 53.9128 25.8047 53.6411 26.8015 53.1183C27.7982 52.5955 28.6524 51.8375 29.29 50.91C36.15 41.2 44.29 28.08 44.29 20.75C44.29 15.2468 42.1038 9.96888 38.2124 6.07754C34.3211 2.18616 29.0432 0 23.54 0C18.0367 0 12.7589 2.18616 8.86754 6.07754C4.97614 9.96888 2.79004 15.2468 2.79004 20.75C2.79004 28.08 10.96 41.2 17.79 50.91C18.4332 51.846 19.297 52.6092 20.305 53.1324C21.313 53.6556 22.4343 53.9227 23.57 53.91ZM37.28 20.61C37.28 23.3216 36.4759 25.9723 34.9694 28.2269C33.4629 30.4815 31.3217 32.2387 28.8166 33.2764C26.3114 34.3141 23.5548 34.5856 20.8953 34.0566C18.2358 33.5276 15.7929 32.2218 13.8755 30.3045C11.9582 28.3871 10.6524 25.9442 10.1234 23.2847C9.59444 20.6252 9.86594 17.8686 10.9036 15.3634C11.9413 12.8583 13.6985 10.717 15.9531 9.21058C18.2077 7.70408 20.8584 6.9 23.57 6.9C27.2045 6.90529 30.6886 8.35148 33.2586 10.9214C35.8285 13.4914 37.2747 16.9755 37.28 20.61Z" fill="#569C1F"/>
<path d="M38.02 46.3001C37.8887 46.2752 37.7538 46.2763 37.6229 46.3035C37.492 46.3307 37.3678 46.3835 37.2573 46.4587C37.1468 46.5339 37.0522 46.6301 36.9789 46.7419C36.9056 46.8537 36.855 46.9788 36.83 47.1101C36.8051 47.2414 36.8062 47.3764 36.8334 47.5073C36.8606 47.6381 36.9134 47.7624 36.9886 47.8729C37.0638 47.9834 37.16 48.078 37.2718 48.1513C37.3836 48.2246 37.5087 48.2752 37.64 48.3001C43.79 49.5201 45.14 51.0801 45.14 51.5801C45.14 52.6601 40.79 55.0201 30.3 55.8201C25.8198 56.1601 21.3203 56.1601 16.84 55.8201C6.34997 55.0201 1.99997 52.6601 1.99997 51.5801C1.99997 51.0801 3.34997 49.5201 9.49997 48.3001C9.76517 48.2497 9.99957 48.096 10.1515 47.8729C10.3034 47.6497 10.3604 47.3753 10.31 47.1101C10.2596 46.8449 10.106 46.6106 9.88277 46.4587C9.65957 46.3068 9.38517 46.2497 9.11997 46.3001C4.95997 47.1201 0 48.6901 0 51.5401C0 56.1401 12.77 57.4801 16.68 57.7801C18.89 57.9501 21.21 58.0401 23.57 58.0401C25.93 58.0401 28.25 57.9501 30.46 57.7801C34.37 57.4801 47.14 56.1401 47.14 51.5401C47.14 48.6901 42.18 47.1201 38.02 46.3001Z" fill="#569C1F"/>
<path d="M18.7 14.2899V14.7499H18.62C17.9934 14.7513 17.3864 14.9689 16.9018 15.3661C16.4171 15.7634 16.0844 16.3157 15.96 16.9299L14.1 26.2199C14.0218 26.6137 14.0317 27.0199 14.129 27.4094C14.2264 27.7989 14.4087 28.162 14.663 28.4727C14.9173 28.7834 15.2372 29.0339 15.5998 29.2063C15.9623 29.3787 16.3586 29.4687 16.76 29.4699H30.38C30.7815 29.4687 31.1777 29.3787 31.5403 29.2063C31.9029 29.0339 32.2228 28.7834 32.477 28.4727C32.7313 28.162 32.9137 27.7989 33.011 27.4094C33.1083 27.0199 33.1183 26.6137 33.04 26.2199L31.18 16.9299C31.0574 16.324 30.7321 15.778 30.2577 15.3817C29.7833 14.9855 29.188 14.7626 28.57 14.7499H28.49V14.2899C28.49 12.9983 27.9769 11.7596 27.0636 10.8463C26.1503 9.93302 24.9116 9.41992 23.62 9.41992C22.3284 9.41992 21.0897 9.93302 20.1764 10.8463C19.2631 11.7596 18.75 12.9983 18.75 14.2899H18.7ZM26.44 14.2899V14.7499H20.7V14.2899C20.7 13.913 20.7743 13.5398 20.9185 13.1916C21.0627 12.8434 21.2741 12.527 21.5406 12.2605C21.8071 11.994 22.1235 11.7826 22.4717 11.6384C22.8199 11.4941 23.1931 11.4199 23.57 11.4199C23.9469 11.4199 24.3201 11.4941 24.6683 11.6384C25.0165 11.7826 25.3329 11.994 25.5994 12.2605C25.8659 12.527 26.0773 12.8434 26.2216 13.1916C26.3658 13.5398 26.44 13.913 26.44 14.2899Z" fill="#569C1F"/>
</svg>
